<svg xmlns="http://www.w3.org/2000/svg" viewBox="0 0 200 200" fill="none">
  <!-- Circular background -->
  <circle cx="100" cy="100" r="96" fill="#0e0a06" stroke="#c9933a" stroke-width="2"/>

  <!-- Stylized "S" / flame / spice swirl -->
  <path d="M100 40 C130 40 152 60 152 82 C152 104 128 112 108 118 C88 124 68 132 68 156 C68 174 84 186 100 186"
        stroke="url(#goldGrad)" stroke-width="10" stroke-linecap="round" fill="none"/>
  <path d="M100 40 C70 40 52 58 52 78 C52 96 70 106 90 112"
        stroke="url(#goldGrad2)" stroke-width="7" stroke-linecap="round" fill="none"/>

  <!-- Spice dots -->
  <circle cx="148" cy="70" r="5" fill="#f0c060" opacity="0.8"/>
  <circle cx="158" cy="84" r="3.5" fill="#f0c060" opacity="0.6"/>
  <circle cx="162" cy="98" r="2.5" fill="#f0c060" opacity="0.4"/>

  <!-- Small flame tip -->
  <path d="M100 186 C116 186 126 178 126 166 C126 155 116 148 108 145"
        stroke="url(#goldGrad)" stroke-width="7" stroke-linecap="round" fill="none"/>

  <defs>
    <linearGradient id="goldGrad" x1="60" y1="40" x2="160" y2="186" gradientUnits="userSpaceOnUse">
      <stop offset="0%" stop-color="#c9933a"/>
      <stop offset="50%" stop-color="#f0c060"/>
      <stop offset="100%" stop-color="#c9933a"/>
    </linearGradient>
    <linearGradient id="goldGrad2" x1="52" y1="40" x2="100" y2="120" gradientUnits="userSpaceOnUse">
      <stop offset="0%" stop-color="#f0c060"/>
      <stop offset="100%" stop-color="#c9933a"/>
    </linearGradient>
  </defs>
</svg>
